<svg width="36" height="30" viewBox="0 0 36 30" fill="none" xmlns="http://www.w3.org/2000/svg">
<path d="M27.9 13.125C23.4231 13.125 19.8 16.899 19.8 21.5625C19.8 26.226 23.4231 30 27.9 30C32.3769 30 36 26.226 36 21.5625C36 16.899 32.3769 13.125 27.9 13.125ZM31.5 21.9311C31.5 22.2439 31.2542 22.5 30.9538 22.5H27.5467C27.2464 22.5 27.0006 22.2439 27.0006 21.9311V17.4445C27.0006 17.1316 27.2464 16.8756 27.5467 16.8756H28.2538C28.5542 16.8756 28.8 17.1316 28.8 17.4445V20.625H30.9538C31.2542 20.625 31.5 20.8811 31.5 21.1939V21.9311ZM27.9 11.25C28.2037 11.25 28.503 11.2693 28.8 11.2975V8.4375C28.8 6.9375 27.54 5.625 26.1 5.625H21.6V2.8125C21.6 1.3125 20.34 0 18.9 0H9.9C8.46 0 7.2 1.3125 7.2 2.8125V5.625H2.7C1.26 5.625 0 6.9375 0 8.4375V13.125H22.2255C23.8342 11.9479 25.7889 11.25 27.9 11.25ZM18 5.625H10.8V3.75H18V5.625ZM18.3836 18.75H11.7C11.2027 18.75 10.8 18.3305 10.8 17.8125V15H0V23.4375C0 24.9375 1.26 26.25 2.7 26.25H19.0929C18.3994 24.8414 18 23.2512 18 21.5625C18 20.5863 18.1395 19.6453 18.3836 18.75Z" fill="white"/>
</svg>
