<svg width="31" height="24" viewBox="0 0 31 24" fill="none" xmlns="http://www.w3.org/2000/svg">
<path d="M18.7152 1.50108C18.7152 1.03467 19.2415 0.856089 19.526 1.14181C19.5262 1.14208 19.5265 1.14235 19.5268 1.14263L29.8546 11.6347C29.855 11.6352 29.8555 11.6356 29.8559 11.6361C30.048 11.8349 30.048 12.1638 29.8559 12.3626C29.8555 12.363 29.855 12.3635 29.8546 12.364L19.5245 22.8584C19.245 23.1423 18.7152 22.9686 18.7152 22.4976V16.4986V15.4986H17.7152H9.34967C9.09868 15.4986 8.87341 15.2926 8.87341 14.9988V8.99984C8.87341 8.70607 9.09868 8.50008 9.34967 8.50008H17.7152H18.7152V7.50008V1.50108ZM5.90506 20.998H10.8101V22.9973H5.90506C3.21208 22.9973 1 20.7729 1 17.9983V6.00033C1 3.22573 3.21208 1.00133 5.90506 1.00133H10.8101V3.00067H5.90506C4.2492 3.00067 2.9367 4.35692 2.9367 6.00033V17.9983C2.9367 19.6418 4.2492 20.998 5.90506 20.998Z" stroke="#C99C33" stroke-width="2"/>
</svg>
