<svg width="70" height="39" viewBox="0 0 70 39" fill="none" xmlns="http://www.w3.org/2000/svg">
<g filter="url(#filter0_d_4_32)">
<path d="M55.1245 25.6365C55.1245 28.5887 57.5177 30.9819 60.4699 30.9819C63.4221 30.9819 65.8153 28.5887 65.8153 25.6365C65.8153 22.6843 63.4221 20.2911 60.4699 20.2911C57.5177 20.2911 55.1245 22.6843 55.1245 25.6365ZM4.00906 8.82435C4.00906 11.7765 6.40228 14.1698 9.35447 14.1698C12.3067 14.1698 14.6999 11.7765 14.6999 8.82435C14.6999 5.87216 12.3067 3.47894 9.35447 3.47894C6.40228 3.47894 4.00906 5.87216 4.00906 8.82435ZM61.4483 25.419C56.1358 1.52205 26.9767 -8.25873 8.68682 8.07683L10.0221 9.57186C27.1383 -5.71545 54.5021 3.41022 59.4915 25.854L61.4483 25.419Z" fill="#C99C33"/>
</g>
<defs>
<filter id="filter0_d_4_32" x="0" y="0" width="69.8244" height="39" filterUnits="userSpaceOnUse" color-interpolation-filters="sRGB">
<feFlood flood-opacity="0" result="BackgroundImageFix"/>
<feColorMatrix in="SourceAlpha" type="matrix" values="0 0 0 0 0 0 0 0 0 0 0 0 0 0 0 0 0 0 127 0" result="hardAlpha"/>
<feOffset dy="4"/>
<feGaussianBlur stdDeviation="2"/>
<feComposite in2="hardAlpha" operator="out"/>
<feColorMatrix type="matrix" values="0 0 0 0 0 0 0 0 0 0 0 0 0 0 0 0 0 0 0.25 0"/>
<feBlend mode="normal" in2="BackgroundImageFix" result="effect1_dropShadow_4_32"/>
<feBlend mode="normal" in="SourceGraphic" in2="effect1_dropShadow_4_32" result="shape"/>
</filter>
</defs>
</svg>
