<svg width="10" height="25" viewBox="0 0 10 25" fill="none" xmlns="http://www.w3.org/2000/svg">
<path d="M4.6875 0C6.41338 0 7.8125 1.39912 7.8125 3.125C7.8125 4.85088 6.41338 6.25 4.6875 6.25C2.96162 6.25 1.5625 4.85088 1.5625 3.125C1.5625 1.39912 2.96162 0 4.6875 0ZM7.03125 7.03125H6.47656C5.36763 7.54116 4.05518 7.56318 2.89844 7.03125H2.34375C1.04932 7.03125 0 8.08057 0 9.375V16.0156C0 16.6628 0.524658 17.1875 1.17188 17.1875H1.95312V23.8281C1.95312 24.4753 2.47778 25 3.125 25H6.25C6.89722 25 7.42188 24.4753 7.42188 23.8281V17.1875H8.20312C8.85034 17.1875 9.375 16.6628 9.375 16.0156V9.375C9.375 8.08057 8.32568 7.03125 7.03125 7.03125Z" fill="black"/>
</svg>
