<svg width="94" height="48" viewBox="0 0 94 48" fill="none" xmlns="http://www.w3.org/2000/svg">
<g filter="url(#filter0_d_4_27)">
<path d="M79.2811 33.9073C79.2811 36.8633 81.6774 39.2597 84.6334 39.2597C87.5894 39.2597 89.9858 36.8633 89.9858 33.9073C89.9858 30.9513 87.5894 28.555 84.6334 28.555C81.6774 28.555 79.2811 30.9513 79.2811 33.9073ZM4.01424 13.8362C4.01424 16.7922 6.41056 19.1885 9.36656 19.1885C12.3226 19.1885 14.7189 16.7922 14.7189 13.8362C14.7189 10.8802 12.3226 8.48386 9.36656 8.48386C6.41056 8.48386 4.01424 10.8802 4.01424 13.8362ZM14.7292 8.71386L8.77796 13.0233L9.95515 14.649L15.9064 10.3395L14.7292 8.71386ZM85.6013 33.642C77.1625 2.86509 40.5767 -10.0033 14.7292 8.71386L15.9064 10.3395C40.6186 -7.55559 75.5974 4.74763 83.6656 34.1727L85.6013 33.642Z" fill="#C99C33"/>
</g>
<defs>
<filter id="filter0_d_4_27" x="0" y="0" width="94" height="47.2881" filterUnits="userSpaceOnUse" color-interpolation-filters="sRGB">
<feFlood flood-opacity="0" result="BackgroundImageFix"/>
<feColorMatrix in="SourceAlpha" type="matrix" values="0 0 0 0 0 0 0 0 0 0 0 0 0 0 0 0 0 0 127 0" result="hardAlpha"/>
<feOffset dy="4"/>
<feGaussianBlur stdDeviation="2"/>
<feComposite in2="hardAlpha" operator="out"/>
<feColorMatrix type="matrix" values="0 0 0 0 0 0 0 0 0 0 0 0 0 0 0 0 0 0 0.25 0"/>
<feBlend mode="normal" in2="BackgroundImageFix" result="effect1_dropShadow_4_27"/>
<feBlend mode="normal" in="SourceGraphic" in2="effect1_dropShadow_4_27" result="shape"/>
</filter>
</defs>
</svg>
