<svg width="31" height="29" viewBox="0 0 31 29" fill="none" xmlns="http://www.w3.org/2000/svg">
<path d="M10.142 27.7146L9.97337 28H9.1375V17.6071V16.6071H8.1375H5.8125H5.25757L4.96395 17.078L2.02844 21.7857H1.40487L1.3875 21.7625V18.6071H1.775V17.6071V17.5714H3.1H4.1V16.5714V16.3988V15.552L3.26477 15.4125L1 15.0341V13.9658L3.26477 13.5875L4.1 13.448V12.6011V12.4286V11.4286H3.1H1.775V11.3929V10.3929H1.3875V7.2375L1.40487 7.21429H2.02839L4.96396 11.922L5.25758 12.3929H5.8125H8.1375H9.1375V11.3929V1H9.97337L10.142 1.28541L15.8015 10.8658L16.0918 11.3571H16.6625H17.6123L19.7431 12.3063L19.8595 12.3582L19.9852 12.3792L26.1243 13.4047C27.7963 13.9023 28.8134 14.2509 29.428 14.5C28.8134 14.7491 27.7963 15.0977 26.1243 15.5953L19.9852 16.6208L19.8595 16.6418L19.7431 16.6937L17.6123 17.6429H16.6625H16.0918L15.8015 18.1342L10.142 27.7146Z" stroke="#C99C33" stroke-width="2"/>
</svg>
