<svg width="27" height="25" viewBox="0 0 27 25" fill="none" xmlns="http://www.w3.org/2000/svg">
<path d="M24.3211 5.35714H4.21875C3.75258 5.35714 3.375 4.95759 3.375 4.46429C3.375 3.97098 3.75258 3.57143 4.21875 3.57143H24.4688C24.9349 3.57143 25.3125 3.17188 25.3125 2.67857C25.3125 1.19922 24.1792 0 22.7812 0H3.375C1.51084 0 0 1.59877 0 3.57143V21.4286C0 23.4012 1.51084 25 3.375 25H24.3211C25.7987 25 27 23.7985 27 22.3214V8.03571C27 6.55859 25.7987 5.35714 24.3211 5.35714ZM21.9375 16.9643C21.0057 16.9643 20.25 16.1646 20.25 15.1786C20.25 14.1925 21.0057 13.3929 21.9375 13.3929C22.8693 13.3929 23.625 14.1925 23.625 15.1786C23.625 16.1646 22.8693 16.9643 21.9375 16.9643Z" fill="#F5F5F5"/>
</svg>
