<svg width="25" height="25" viewBox="0 0 25 25" fill="none" xmlns="http://www.w3.org/2000/svg">
<path d="M7.07011 0.830773C6.51837 -0.0383421 5.25376 -0.282476 4.43347 0.371802C1.72358 2.53483 0 5.76227 0 9.37545H12.4996L7.07011 0.830773ZM24.2181 4.68808H21.8744C20.1508 4.68808 18.7495 6.08941 18.7495 7.81299V10.9379H0C0 13.4085 1.12301 15.6448 2.94425 17.3196C1.25485 17.7541 0 19.2726 0 21.0939C0 23.252 1.748 25 3.90614 25C6.06428 25 7.81228 23.252 7.81228 21.0939C7.81228 20.6593 7.72439 20.254 7.59744 19.8634C8.65209 20.1515 9.77511 20.3126 10.9372 20.3126C12.0993 20.3126 13.2272 20.1515 14.2769 19.8634C14.1451 20.254 14.0621 20.6593 14.0621 21.0939C14.0621 23.252 15.8101 25 17.9682 25C20.1264 25 21.8744 23.252 21.8744 21.0939C21.8744 19.2726 20.6195 17.7541 18.9301 17.3196C20.7514 15.6448 21.8744 13.4085 21.8744 10.9379V7.81299H24.2181C24.6477 7.81299 24.9993 7.46144 24.9993 7.03177V5.46931C24.9993 5.03964 24.6477 4.68808 24.2181 4.68808ZM3.90614 22.6563C3.04679 22.6563 2.34368 21.9532 2.34368 21.0939C2.34368 20.2345 3.04679 19.5314 3.90614 19.5314C4.76549 19.5314 5.46859 20.2345 5.46859 21.0939C5.46859 21.9532 4.76549 22.6563 3.90614 22.6563ZM19.5307 21.0939C19.5307 21.9532 18.8276 22.6563 17.9682 22.6563C17.1089 22.6563 16.4058 21.9532 16.4058 21.0939C16.4058 20.2345 17.1089 19.5314 17.9682 19.5314C18.8276 19.5314 19.5307 20.2345 19.5307 21.0939Z" fill="black"/>
</svg>
