<svg width="84" height="34" viewBox="0 0 84 34" fill="none" xmlns="http://www.w3.org/2000/svg">
<g filter="url(#filter0_d_4_34)">
<path d="M69.3608 20.6252C69.7975 23.5444 72.518 25.5568 75.4371 25.1201C78.3563 24.6834 80.3688 21.963 79.9321 19.0438C79.4954 16.1246 76.775 14.1122 73.8558 14.5488C70.9366 14.9855 68.9241 17.706 69.3608 20.6252ZM4.06789 17.6453C4.50458 20.5644 7.22505 22.5769 10.1442 22.1402C13.0634 21.7035 15.0759 18.9831 14.6392 16.0639C14.2025 13.1447 11.482 11.1322 8.56285 11.5689C5.64367 12.0056 3.63121 14.7261 4.06789 17.6453ZM21.0126 8.19548L21.6101 8.99996L21.0126 8.19548ZM20.4151 7.391L8.75606 16.0501L9.95102 17.6591L21.6101 8.99996L20.4151 7.391ZM75.5237 19.35C64.5623 -0.49723 38.6172 -6.12754 20.4151 7.391L21.6101 8.99996C38.838 -3.79507 63.3945 1.5339 73.7693 20.319L75.5237 19.35Z" fill="#C99C33"/>
</g>
<defs>
<filter id="filter0_d_4_34" x="0" y="0" width="84" height="33.1964" filterUnits="userSpaceOnUse" color-interpolation-filters="sRGB">
<feFlood flood-opacity="0" result="BackgroundImageFix"/>
<feColorMatrix in="SourceAlpha" type="matrix" values="0 0 0 0 0 0 0 0 0 0 0 0 0 0 0 0 0 0 127 0" result="hardAlpha"/>
<feOffset dy="4"/>
<feGaussianBlur stdDeviation="2"/>
<feComposite in2="hardAlpha" operator="out"/>
<feColorMatrix type="matrix" values="0 0 0 0 0 0 0 0 0 0 0 0 0 0 0 0 0 0 0.25 0"/>
<feBlend mode="normal" in2="BackgroundImageFix" result="effect1_dropShadow_4_34"/>
<feBlend mode="normal" in="SourceGraphic" in2="effect1_dropShadow_4_34" result="shape"/>
</filter>
</defs>
</svg>
