<svg width="26" height="25" viewBox="0 0 26 25" fill="none" xmlns="http://www.w3.org/2000/svg">
<path d="M16.1684 24.1138L16.0998 24.1366L16.1684 24.1138ZM16.1684 24.1138L16.0998 24.1366M16.1684 24.1138L16.0998 24.1366M16.0998 24.1366L15.9913 24.1727L16.0998 24.1366ZM1.43905 15.0848L1.68954 14.7044L1.43905 15.0848ZM1.43905 15.0848C1.37619 15.0434 1.32054 14.9871 1.2753 14.9191L1.43905 15.0848ZM10.2662 17.4891L11.0438 18.1179L10.2662 17.4891C9.97231 17.8525 9.83227 18.3079 9.83227 18.7493V23.9847L5.33368 23.9991V15.3693L13.0007 7.5612L20.6657 15.3633V23.999L16.1653 23.9836V18.7493C16.1653 18.3079 16.0252 17.8525 15.7313 17.4891L14.9538 18.1179L15.7313 17.4891C15.4327 17.1199 14.9767 16.8563 14.4431 16.8563H11.5544C11.0209 16.8563 10.5648 17.1199 10.2662 17.4891ZM15.8874 23.9827C15.8886 23.9827 15.8897 23.9827 15.8909 23.9827H15.8874ZM21.313 9.10028L24.9386 12.7956L24.2324 13.8571L14.0594 3.49682L14.0594 3.49678L14.0518 3.48917C13.787 3.22523 13.4184 3.04681 13.0006 3.04681C12.5828 3.04681 12.2142 3.22523 11.9494 3.48917L11.9493 3.48913L11.9418 3.49684L1.76958 13.8566L1.06149 12.7922L12.3349 1.31206C12.335 1.31196 12.3351 1.31187 12.3352 1.31177C12.5559 1.0873 12.793 1.00079 12.9983 1.00079C13.2037 1.00079 13.4409 1.08737 13.6617 1.31206L13.6618 1.31213L17.7028 5.42308L19.4159 7.1659V4.72207V1H21.0268V8.39993V8.80858L21.313 9.10028ZM0.774994 12.7535L0.669115 12.7082L0.66911 12.7082L0.774994 12.7535ZM0.0636735 12.4487L0.666101 12.7069L0.666106 12.7069L0.0636735 12.4487Z" stroke="#C99C33" stroke-width="2"/>
</svg>
